# xmcd CD database file
#
# Track frame offsets:
#	152
#	63186
#	109029
#	162510
#	247683
#	288015
#
# Disc length: 4296 seconds
#
# Revision: 0
# Processed by: cddbd v1.5.2PL0 Copyright (c) Steve Scherf et al.
# Submitted via: CDex 1.70beta2
#
DISCID=4310c606
DTITLE=Blakey, Art and the Jazz Messengers - Legends live - Sängerhalle Untertürkheim am 15-07-1978
DYEAR=2011
DGENRE=Jazz
TTITLE0=Mishima
TTITLE1=Body and Soul
TTITLE2=1997 A. D.
TTITLE3=Hawk man
TTITLE4=I remember Clifford
TTITLE5=Moanin'
EXTD=YEAR: 2011
EXTT0=
EXTT1=
EXTT2=
EXTT3=
EXTT4=
EXTT5=
PLAYORDER=
